<svg width="36" height="36" viewBox="0 0 36 36" fill="none" xmlns="http://www.w3.org/2000/svg">
<path d="M33.125 35.8333L28.2083 30.9166C26.875 31.8055 25.4378 32.486 23.8967 32.9583C22.3544 33.4305 20.7222 33.6666 19 33.6666C16.6944 33.6666 14.5278 33.2288 12.5 32.3533C10.4722 31.4788 8.70833 30.2916 7.20833 28.7916C5.70833 27.2916 4.52111 25.5277 3.64667 23.4999C2.77111 21.4721 2.33333 19.3055 2.33333 16.9999C2.33333 15.2777 2.56944 13.6455 3.04167 12.1033C3.51389 10.5621 4.19445 9.12492 5.08333 7.79159L0.125 2.83325L2.5 0.458252L35.5 33.4583L33.125 35.8333ZM19 30.3333C20.25 30.3333 21.4372 30.1666 22.5617 29.8333C23.6872 29.4999 24.75 29.0416 25.75 28.4583L19.3333 21.9999L16.6667 24.6666L9.58333 17.5833L11.9167 15.2499L16.6667 19.9999L17 19.6666L7.54167 10.2499C6.95833 11.2499 6.5 12.3127 6.16667 13.4383C5.83333 14.5627 5.66667 15.7499 5.66667 16.9999C5.66667 20.6944 6.96556 23.8405 9.56333 26.4383C12.16 29.0349 15.3056 30.3333 19 30.3333ZM32.9583 26.1666L30.5 23.7083C31.0833 22.736 31.5344 21.6871 31.8533 20.5616C32.1733 19.4371 32.3333 18.2499 32.3333 16.9999C32.3333 13.3055 31.035 10.1594 28.4383 7.56159C25.8406 4.96492 22.6944 3.66659 19 3.66659C17.75 3.66659 16.5628 3.82603 15.4383 4.14492C14.3128 4.46492 13.2639 4.91659 12.2917 5.49992L9.83333 3.04159C11.1667 2.18047 12.6044 1.51381 14.1467 1.04159C15.6878 0.569363 17.3056 0.333252 19 0.333252C21.3056 0.333252 23.4722 0.770474 25.5 1.64492C27.5278 2.52047 29.2917 3.70825 30.7917 5.20825C32.2917 6.70825 33.4789 8.47214 34.3533 10.4999C35.2289 12.5277 35.6667 14.6944 35.6667 16.9999C35.6667 18.6944 35.4306 20.3121 34.9583 21.8533C34.4861 23.3955 33.8195 24.8333 32.9583 26.1666ZM24.0833 17.2499L21.75 14.9166L26.0833 10.5833L28.4167 12.9166L24.0833 17.2499Z" fill="#1C1B1F"/>
</svg>
