<svg width="34" height="34" viewBox="0 0 34 34" fill="none" xmlns="http://www.w3.org/2000/svg">
<path d="M16.9987 33.6666C14.6931 33.6666 12.5265 33.2288 10.4987 32.3533C8.47092 31.4788 6.70703 30.2916 5.20703 28.7916C3.70703 27.2916 2.51981 25.5277 1.64536 23.4999C0.769809 21.4721 0.332031 19.3055 0.332031 16.9999C0.332031 14.6944 0.769809 12.5277 1.64536 10.4999C2.51981 8.47214 3.70703 6.70825 5.20703 5.20825C6.70703 3.70825 8.47092 2.52047 10.4987 1.64492C12.5265 0.770474 14.6931 0.333252 16.9987 0.333252C18.8043 0.333252 20.5126 0.597141 22.1237 1.12492C23.7348 1.6527 25.2209 2.38881 26.582 3.33325L24.1654 5.79159C23.1098 5.12492 21.9848 4.60381 20.7904 4.22825C19.5959 3.85381 18.332 3.66659 16.9987 3.66659C13.3043 3.66659 10.1587 4.96492 7.56203 7.56158C4.96425 10.1594 3.66536 13.3055 3.66536 16.9999C3.66536 20.6944 4.96425 23.8405 7.56203 26.4383C10.1587 29.0349 13.3043 30.3333 16.9987 30.3333C20.6931 30.3333 23.8393 29.0349 26.437 26.4383C29.0337 23.8405 30.332 20.6944 30.332 16.9999C30.332 16.4999 30.3043 15.9999 30.2487 15.4999C30.1931 14.9999 30.1098 14.5138 29.9987 14.0416L32.707 11.3333C33.0126 12.2221 33.2487 13.1388 33.4154 14.0833C33.582 15.0277 33.6654 15.9999 33.6654 16.9999C33.6654 19.3055 33.2276 21.4721 32.352 23.4999C31.4776 25.5277 30.2904 27.2916 28.7904 28.7916C27.2904 30.2916 25.5265 31.4788 23.4987 32.3533C21.4709 33.2288 19.3043 33.6666 16.9987 33.6666ZM14.6654 24.6666L7.58203 17.5833L9.91536 15.2499L14.6654 19.9999L31.332 3.29159L33.6654 5.62492L14.6654 24.6666Z" fill="#1C1B1F"/>
</svg>
