<svg width="50" height="50" viewBox="0 0 50 50" fill="none" xmlns="http://www.w3.org/2000/svg">
<path d="M22.75 42.5H27.125V39.375C29.2083 39 31 38.1875 32.5 36.9375C34 35.6875 34.75 33.8333 34.75 31.375C34.75 29.625 34.25 28.0208 33.25 26.5625C32.25 25.1042 30.25 23.8333 27.25 22.75C24.75 21.9167 23.0208 21.1875 22.0625 20.5625C21.1042 19.9375 20.625 19.0833 20.625 18C20.625 16.9167 21.0108 16.0625 21.7825 15.4375C22.5525 14.8125 23.6667 14.5 25.125 14.5C26.4583 14.5 27.5 14.8233 28.25 15.47C29 16.115 29.5417 16.9167 29.875 17.875L33.875 16.25C33.4167 14.7917 32.5733 13.5208 31.345 12.4375C30.115 11.3542 28.75 10.75 27.25 10.625V7.5H22.875V10.625C20.7917 11.0833 19.1667 12 18 13.375C16.8333 14.75 16.25 16.2917 16.25 18C16.25 19.9583 16.8233 21.5417 17.97 22.75C19.115 23.9583 20.9167 25 23.375 25.875C26 26.8333 27.8233 27.6875 28.845 28.4375C29.865 29.1875 30.375 30.1667 30.375 31.375C30.375 32.75 29.885 33.76 28.905 34.405C27.9267 35.0517 26.75 35.375 25.375 35.375C24 35.375 22.7817 34.9475 21.72 34.0925C20.6567 33.2392 19.875 31.9583 19.375 30.25L15.25 31.875C15.8333 33.875 16.74 35.49 17.97 36.72C19.1983 37.9483 20.7917 38.7917 22.75 39.25V42.5ZM25 50C21.5417 50 18.2917 49.3433 15.25 48.03C12.2083 46.7183 9.5625 44.9375 7.3125 42.6875C5.0625 40.4375 3.28167 37.7917 1.97 34.75C0.656667 31.7083 0 28.4583 0 25C0 21.5417 0.656667 18.2917 1.97 15.25C3.28167 12.2083 5.0625 9.5625 7.3125 7.3125C9.5625 5.0625 12.2083 3.28083 15.25 1.9675C18.2917 0.655833 21.5417 0 25 0C28.4583 0 31.7083 0.655833 34.75 1.9675C37.7917 3.28083 40.4375 5.0625 42.6875 7.3125C44.9375 9.5625 46.7183 12.2083 48.03 15.25C49.3433 18.2917 50 21.5417 50 25C50 28.4583 49.3433 31.7083 48.03 34.75C46.7183 37.7917 44.9375 40.4375 42.6875 42.6875C40.4375 44.9375 37.7917 46.7183 34.75 48.03C31.7083 49.3433 28.4583 50 25 50ZM25 45C30.5833 45 35.3125 43.0625 39.1875 39.1875C43.0625 35.3125 45 30.5833 45 25C45 19.4167 43.0625 14.6875 39.1875 10.8125C35.3125 6.9375 30.5833 5 25 5C19.4167 5 14.6875 6.9375 10.8125 10.8125C6.9375 14.6875 5 19.4167 5 25C5 30.5833 6.9375 35.3125 10.8125 39.1875C14.6875 43.0625 19.4167 45 25 45Z" fill="#FFC700"/>
</svg>
