<svg width="30" height="34" viewBox="0 0 30 34" fill="none" xmlns="http://www.w3.org/2000/svg">
<path d="M3.91421 33.5334C3.08058 33.5334 2.36719 33.2118 1.77404 32.5686C1.17989 31.9243 0.882812 31.1502 0.882812 30.2462V3.94879C0.882812 3.04482 1.17989 2.27069 1.77404 1.62641C2.36719 0.983216 3.08058 0.661621 3.91421 0.661621H16.0398L25.134 10.5231V17.0975H22.1026V12.1667H14.5241V3.94879H3.91421V30.2462H13.0084V33.5334H3.91421ZM22.5573 21.2475L24.1867 23.0144L18.3134 29.3422V31.068H19.9048L25.7782 24.7402L27.3697 26.4659L20.8522 33.5334H16.0398V28.315L22.5573 21.2475ZM27.3697 26.4659L22.5573 21.2475L24.7551 18.8643C25.033 18.563 25.3866 18.4124 25.8161 18.4124C26.2455 18.4124 26.5992 18.563 26.8771 18.8643L29.5674 21.7817C29.8453 22.083 29.9843 22.4665 29.9843 22.9322C29.9843 23.3979 29.8453 23.7814 29.5674 24.0827L27.3697 26.4659Z" fill="#1C1B1F"/>
</svg>
