<svg width="60" height="60" viewBox="0 0 60 60" fill="none" xmlns="http://www.w3.org/2000/svg">
<mask id="mask0_374_5691" style="mask-type:alpha" maskUnits="userSpaceOnUse" x="0" y="0" width="60" height="60">
<rect width="60" height="60" fill="#D9D9D9"/>
</mask>
<g mask="url(#mask0_374_5691)">
<path d="M27.5 52.5L19.5625 45.375C16.5625 42.6667 13.99 40.25 11.845 38.125C9.69833 36 7.9275 34 6.5325 32.125C5.13583 30.25 4.115 28.4375 3.47 26.6875C2.82333 24.9375 2.5 23.1042 2.5 21.1875C2.5 17.2708 3.8125 14.01 6.4375 11.405C9.0625 8.80167 12.3333 7.5 16.25 7.5C18.4167 7.5 20.4792 7.95833 22.4375 8.875C24.3958 9.79167 26.0833 11.0833 27.5 12.75C28.9167 11.0833 30.6042 9.79167 32.5625 8.875C34.5208 7.95833 36.5833 7.5 38.75 7.5C42.125 7.5 44.9583 8.4475 47.25 10.3425C49.5417 12.2392 51.1042 14.625 51.9375 17.5H46.625C45.875 15.8333 44.7708 14.5833 43.3125 13.75C41.8542 12.9167 40.3333 12.5 38.75 12.5C36.625 12.5 34.7917 13.0733 33.25 14.22C31.7083 15.365 30.2708 16.875 28.9375 18.75H26.0625C24.7708 16.875 23.3025 15.365 21.6575 14.22C20.0108 13.0733 18.2083 12.5 16.25 12.5C13.875 12.5 11.8225 13.3225 10.0925 14.9675C8.36417 16.6142 7.5 18.6875 7.5 21.1875C7.5 22.5625 7.79167 23.9583 8.375 25.375C8.95833 26.7917 10 28.4275 11.5 30.2825C13 32.1358 15.0417 34.3017 17.625 36.78C20.2083 39.26 23.5 42.25 27.5 45.75C28.5833 44.7917 29.8542 43.6875 31.3125 42.4375C32.7708 41.1875 33.9375 40.1458 34.8125 39.3125L35.375 39.875L36.5925 41.095L37.8125 42.3125L38.375 42.875C37.4583 43.7083 36.2917 44.7392 34.875 45.9675C33.4583 47.1975 32.2083 48.2917 31.125 49.25L27.5 52.5ZM45 42.5V35H37.5V30H45V22.5H50V30H57.5V35H50V42.5H45Z" fill="#FF0000"/>
</g>
</svg>
