<svg width="42" height="37" viewBox="0 0 42 37" fill="none" xmlns="http://www.w3.org/2000/svg">
<path d="M15.0306 36.6111L14.207 30.7533C13.7609 30.6007 13.3409 30.4177 12.9469 30.2041C12.5516 29.9906 12.1652 29.7617 11.7877 29.5177L5.66222 31.8059L0 23.1107L5.30189 19.5412C5.26758 19.3276 5.25042 19.1213 5.25042 18.9224V17.6868C5.25042 17.4891 5.26758 17.2835 5.30189 17.0699L0 13.5003L5.66222 4.8052L11.7877 7.09339C12.1652 6.84932 12.5598 6.6205 12.9716 6.40694C13.3834 6.19337 13.7952 6.01032 14.207 5.85777L15.0306 0H26.355L27.1786 5.85777C27.6248 6.01032 28.0455 6.19337 28.4408 6.40694C28.8348 6.6205 29.2205 6.84932 29.598 7.09339L35.7234 4.8052L41.3857 13.5003L36.0838 17.0699C36.1181 17.2835 36.1352 17.4891 36.1352 17.6868V18.9224C36.1352 19.1213 36.1009 19.3276 36.0323 19.5412L41.3342 23.1107L35.672 31.8059L29.598 29.5177C29.2205 29.7617 28.8258 29.9906 28.414 30.2041C28.0022 30.4177 27.5904 30.6007 27.1786 30.7533L26.355 36.6111H15.0306ZM20.7958 24.7125C22.7861 24.7125 24.4848 24.087 25.8918 22.8362C27.2987 21.5853 28.0022 20.0751 28.0022 18.3055C28.0022 16.536 27.2987 15.0258 25.8918 13.7749C24.4848 12.524 22.7861 11.8986 20.7958 11.8986C18.7711 11.8986 17.0635 12.524 15.673 13.7749C14.2839 15.0258 13.5893 16.536 13.5893 18.3055C13.5893 20.0751 14.2839 21.5853 15.673 22.8362C17.0635 24.087 18.7711 24.7125 20.7958 24.7125ZM20.7958 21.0514C19.9379 21.0514 19.209 20.7841 18.6091 20.2496C18.0079 19.7163 17.7073 19.0683 17.7073 18.3055C17.7073 17.5428 18.0079 16.8948 18.6091 16.3615C19.209 15.827 19.9379 15.5597 20.7958 15.5597C21.6537 15.5597 22.3833 15.827 22.9845 16.3615C23.5843 16.8948 23.8843 17.5428 23.8843 18.3055C23.8843 19.0683 23.5843 19.7163 22.9845 20.2496C22.3833 20.7841 21.6537 21.0514 20.7958 21.0514ZM18.6338 32.95H22.7003L23.421 28.099C24.4848 27.8549 25.4717 27.4961 26.3818 27.0226C27.2905 26.5503 28.1223 25.9786 28.8773 25.3074L33.9733 27.1837L35.9808 24.0718L31.554 21.0971C31.7256 20.67 31.8457 20.2197 31.9143 19.7462C31.9829 19.2739 32.0173 18.7937 32.0173 18.3055C32.0173 17.8174 31.9829 17.3366 31.9143 16.8631C31.8457 16.3908 31.7256 15.9411 31.554 15.5139L35.9808 12.5393L33.9733 9.42735L28.8773 11.3494C28.1223 10.6477 27.2905 10.0601 26.3818 9.58661C25.4717 9.11433 24.4848 8.75615 23.421 8.51207L22.7518 3.66111H18.6853L17.9647 8.51207C16.9009 8.75615 15.9146 9.11433 15.0059 9.58661C14.0958 10.0601 13.2633 10.6325 12.5084 11.3037L7.41236 9.42735L5.40484 12.5393L9.83167 15.4682C9.66008 15.9258 9.53998 16.3835 9.47134 16.8411C9.40271 17.2987 9.36839 17.7869 9.36839 18.3055C9.36839 18.7937 9.40271 19.2666 9.47134 19.7242C9.53998 20.1818 9.66008 20.6395 9.83167 21.0971L5.40484 24.0718L7.41236 27.1837L12.5084 25.2616C13.2633 25.9633 14.0958 26.5503 15.0059 27.0226C15.9146 27.4961 16.9009 27.8549 17.9647 28.099L18.6338 32.95Z" fill="#A6A7A7"/>
</svg>
