<svg width="42" height="42" viewBox="0 0 42 42" fill="none" xmlns="http://www.w3.org/2000/svg">
<path d="M8.02083 31.6359C9.79167 30.2741 11.7708 29.2 13.9583 28.4137C16.1458 27.6287 18.4375 27.2362 20.8333 27.2362C23.2292 27.2362 25.5208 27.6287 27.7083 28.4137C29.8958 29.2 31.875 30.2741 33.6458 31.6359C34.8611 30.2043 35.8076 28.5806 36.4854 26.7648C37.1618 24.9491 37.5 23.0111 37.5 20.9509C37.5 16.3068 35.8771 12.352 32.6312 9.08642C29.384 5.82227 25.4514 4.19019 20.8333 4.19019C16.2153 4.19019 12.2833 5.82227 9.0375 9.08642C5.79028 12.352 4.16667 16.3068 4.16667 20.9509C4.16667 23.0111 4.50556 24.9491 5.18333 26.7648C5.85972 28.5806 6.80556 30.2043 8.02083 31.6359ZM20.8333 23.046C18.7847 23.046 17.0569 22.3393 15.65 20.9258C14.2444 19.5109 13.5417 17.7734 13.5417 15.7132C13.5417 13.653 14.2444 11.9155 15.65 10.5006C17.0569 9.08712 18.7847 8.38037 20.8333 8.38037C22.8819 8.38037 24.6097 9.08712 26.0167 10.5006C27.4222 11.9155 28.125 13.653 28.125 15.7132C28.125 17.7734 27.4222 19.5109 26.0167 20.9258C24.6097 22.3393 22.8819 23.046 20.8333 23.046ZM20.8333 41.9019C17.9514 41.9019 15.2431 41.3516 12.7083 40.2509C10.1736 39.1517 7.96875 37.6593 6.09375 35.7737C4.21875 33.8881 2.73472 31.6708 1.64167 29.1218C0.547222 26.5728 0 23.8491 0 20.9509C0 18.0527 0.547222 15.3291 1.64167 12.7801C2.73472 10.231 4.21875 8.01373 6.09375 6.12815C7.96875 4.24257 10.1736 2.74946 12.7083 1.64884C15.2431 0.549613 17.9514 0 20.8333 0C23.7153 0 26.4236 0.549613 28.9583 1.64884C31.4931 2.74946 33.6979 4.24257 35.5729 6.12815C37.4479 8.01373 38.9319 10.231 40.025 12.7801C41.1194 15.3291 41.6667 18.0527 41.6667 20.9509C41.6667 23.8491 41.1194 26.5728 40.025 29.1218C38.9319 31.6708 37.4479 33.8881 35.5729 35.7737C33.6979 37.6593 31.4931 39.1517 28.9583 40.2509C26.4236 41.3516 23.7153 41.9019 20.8333 41.9019ZM20.8333 37.7117C22.6736 37.7117 24.4097 37.4414 26.0417 36.9009C27.6736 36.359 29.1667 35.5817 30.5208 34.569C29.1667 33.5564 27.6736 32.7791 26.0417 32.2372C24.4097 31.6967 22.6736 31.4264 20.8333 31.4264C18.9931 31.4264 17.2569 31.6967 15.625 32.2372C13.9931 32.7791 12.5 33.5564 11.1458 34.569C12.5 35.5817 13.9931 36.359 15.625 36.9009C17.2569 37.4414 18.9931 37.7117 20.8333 37.7117ZM20.8333 18.8558C21.7361 18.8558 22.4826 18.559 23.0729 17.9654C23.6632 17.3718 23.9583 16.6211 23.9583 15.7132C23.9583 14.8053 23.6632 14.0546 23.0729 13.461C22.4826 12.8674 21.7361 12.5706 20.8333 12.5706C19.9306 12.5706 19.184 12.8674 18.5938 13.461C18.0035 14.0546 17.7083 14.8053 17.7083 15.7132C17.7083 16.6211 18.0035 17.3718 18.5938 17.9654C19.184 18.559 19.9306 18.8558 20.8333 18.8558Z" fill="#403F42" fill-opacity="0.77"/>
</svg>
