<svg width="42" height="41" viewBox="0 0 42 41" fill="none" xmlns="http://www.w3.org/2000/svg">
<path d="M18.917 30.6017H23.0837V22.4548H31.417V18.3814H23.0837V10.2346H18.917V18.3814H10.5837V22.4548H18.917V30.6017ZM21.0003 40.7852C18.1184 40.7852 15.41 40.2502 12.8753 39.1803C10.3406 38.1117 8.13574 36.6609 6.26074 34.8279C4.38574 32.9948 2.90171 30.8393 1.80866 28.3613C0.714215 25.8833 0.166992 23.2356 0.166992 20.4181C0.166992 17.6007 0.714215 14.953 1.80866 12.475C2.90171 9.99696 4.38574 7.84144 6.26074 6.0084C8.13574 4.17536 10.3406 2.72387 12.8753 1.65392C15.41 0.585322 18.1184 0.0510254 21.0003 0.0510254C23.8823 0.0510254 26.5906 0.585322 29.1253 1.65392C31.66 2.72387 33.8649 4.17536 35.7399 6.0084C37.6149 7.84144 39.0989 9.99696 40.192 12.475C41.2864 14.953 41.8337 17.6007 41.8337 20.4181C41.8337 23.2356 41.2864 25.8833 40.192 28.3613C39.0989 30.8393 37.6149 32.9948 35.7399 34.8279C33.8649 36.6609 31.66 38.1117 29.1253 39.1803C26.5906 40.2502 23.8823 40.7852 21.0003 40.7852ZM21.0003 36.7118C25.6531 36.7118 29.5941 35.1334 32.8232 31.9765C36.0524 28.8196 37.667 24.9668 37.667 20.4181C37.667 15.8695 36.0524 12.0167 32.8232 8.8598C29.5941 5.7029 25.6531 4.12445 21.0003 4.12445C16.3475 4.12445 12.4066 5.7029 9.17741 8.8598C5.94824 12.0167 4.33366 15.8695 4.33366 20.4181C4.33366 24.9668 5.94824 28.8196 9.17741 31.9765C12.4066 35.1334 16.3475 36.7118 21.0003 36.7118Z" fill="#46BEFF"/>
</svg>
